<svg xmlns="http://www.w3.org/2000/svg" xmlns:xlink="http://www.w3.org/1999/xlink" width="274" height="276" viewBox="0 0 274 276">
  <defs>
    <filter id="パス_60" x="0" y="0" width="274" height="276" filterUnits="userSpaceOnUse">
      <feOffset dy="6" input="SourceAlpha"/>
      <feGaussianBlur result="blur"/>
      <feFlood flood-opacity="0.11"/>
      <feComposite operator="in" in2="blur"/>
      <feComposite in="SourceGraphic"/>
    </filter>
  </defs>
  <g id="グループ_73" data-name="グループ 73" transform="translate(690 -9082)">
    <g transform="matrix(1, 0, 0, 1, -690, 9082)" filter="url(#パス_60)">
      <g id="パス_60-2" data-name="パス 60" fill="#fff">
        <path d="M 137 266 C 127.9696502685547 266 118.9462280273438 265.103759765625 110.1803817749023 263.336181640625 C 101.6398849487305 261.6140747070312 93.23942565917969 259.0444946289062 85.21227264404297 255.6988830566406 C 77.33092498779297 252.4140319824219 69.72934722900391 248.3482360839844 62.61861419677734 243.6144561767578 C 55.57553863525391 238.9257354736328 48.95265197753906 233.5411224365234 42.93392181396484 227.6102752685547 C 36.91622924804688 221.680419921875 31.45319175720215 215.1558837890625 26.6965389251709 208.2179565429688 C 21.8957691192627 201.2156219482422 17.77269172668457 193.73046875 14.44184589385986 185.9703826904297 C 11.05023097991943 178.0687255859375 8.445423126220703 169.8000335693359 6.699807643890381 161.3939208984375 C 4.908346176147461 152.7671203613281 4 143.8868865966797 4 135 C 4 126.1131134033203 4.908346176147461 117.2329254150391 6.699807643890381 108.6060791015625 C 8.445423126220703 100.1999588012695 11.05023097991943 91.93126678466797 14.44184589385986 84.02965545654297 C 17.77269172668457 76.26957702636719 21.8957691192627 68.784423828125 26.6965389251709 61.78207778930664 C 31.45319175720215 54.8441162109375 36.91622924804688 48.31961441040039 42.93392181396484 42.38973236083984 C 48.95265197753906 36.45888519287109 55.57553863525391 31.07426834106445 62.61861419677734 26.38553810119629 C 69.72934722900391 21.65176963806152 77.33092498779297 17.58596229553223 85.21227264404297 14.30111503601074 C 93.23942565917969 10.95549964904785 101.6398849487305 8.385923385620117 110.1803817749023 6.66380786895752 C 118.9462280273438 4.896230697631836 127.9696502685547 4 137 4 C 146.0303497314453 4 155.0537719726562 4.896230697631836 163.8196105957031 6.66380786895752 C 172.3601226806641 8.385923385620117 180.7605743408203 10.95549964904785 188.7877349853516 14.30111503601074 C 196.6690826416016 17.58596229553223 204.2706604003906 21.65176963806152 211.3813781738281 26.38553810119629 C 218.4244689941406 31.07426834106445 225.0473480224609 36.45888519287109 231.0660705566406 42.38973236083984 C 237.0837707519531 48.31961441040039 242.5468139648438 54.8441162109375 247.303466796875 61.78207778930664 C 252.1042327880859 68.784423828125 256.227294921875 76.26957702636719 259.5581665039062 84.02965545654297 C 262.9497680664062 91.93126678466797 265.5545654296875 100.1999588012695 267.3002014160156 108.6060791015625 C 269.0916442871094 117.2329254150391 270 126.1131134033203 270 135 C 270 143.8868865966797 269.0916442871094 152.7671203613281 267.3002014160156 161.3939208984375 C 265.5545654296875 169.8000335693359 262.9497680664062 178.0687255859375 259.5581665039062 185.9703826904297 C 256.227294921875 193.73046875 252.1042327880859 201.2156219482422 247.303466796875 208.2179565429688 C 242.5468139648438 215.1558837890625 237.0837707519531 221.680419921875 231.0660705566406 227.6102752685547 C 225.0473480224609 233.5411224365234 218.4244689941406 238.9257354736328 211.3813781738281 243.6144561767578 C 204.2706604003906 248.3482360839844 196.6690826416016 252.4140319824219 188.7877349853516 255.6988830566406 C 180.7605743408203 259.0444946289062 172.3601226806641 261.6140747070312 163.8196105957031 263.336181640625 C 155.0537719726562 265.103759765625 146.0303497314453 266 137 266 Z" stroke="none"/>
        <path d="M 137 8 C 65.86917114257812 8 8 64.97195434570312 8 135 C 8 205.0280456542969 65.86917114257812 262 137 262 C 208.1308288574219 262 266 205.0280456542969 266 135 C 266 64.97195434570312 208.1308288574219 8 137 8 M 137 0 C 212.6629943847656 0 274 60.44154357910156 274 135 C 274 209.5584564208984 212.6629943847656 270 137 270 C 61.33700561523438 270 0 209.5584564208984 0 135 C 0 60.44154357910156 61.33700561523438 0 137 0 Z" stroke="none" fill="#ee84b2"/>
      </g>
    </g>
    <path id="パス_61" data-name="パス 61" d="M-56.56-18.956l-2.212-2.072a14.44,14.44,0,0,1-2.856.252H-76.72a22.2,22.2,0,0,1-3.416-.28v3.892c1.316-.112,2.24-.2,3.416-.2h14.588a16.651,16.651,0,0,1-5.152,5.208l2.912,2.324a28.518,28.518,0,0,0,6.72-7.672A14.1,14.1,0,0,1-56.56-18.956Zm-11.424,3.78h-4.06a15.522,15.522,0,0,1,.2,2.52c0,4.592-.672,7.56-4.228,10.024a11.064,11.064,0,0,1-2.94,1.54l3.276,2.66C-68.124-2.52-67.984-8.232-67.984-15.176Zm27.328-6.664-4.088-1.344A13.471,13.471,0,0,1-46-20.244a24.654,24.654,0,0,1-8.736,9.016L-51.6-8.9a31.915,31.915,0,0,0,7.056-6.776h7.868a19.9,19.9,0,0,1-3.976,7.644C-43.092-5.264-46.2-2.828-51.94-1.12l3.3,2.968a26.145,26.145,0,0,0,11.312-7.9A29.215,29.215,0,0,0-32.452-15.4a11.211,11.211,0,0,1,.924-2.016l-2.856-1.764a8.978,8.978,0,0,1-2.436.336h-5.628c.028-.056.056-.084.084-.14C-42.028-19.6-41.3-20.86-40.656-21.84ZM-20.8-3.724c0,3.3.924,4.844,7.308,4.844A65.817,65.817,0,0,0-4.816.5L-4.7-3.3a45.743,45.743,0,0,1-8.82.952c-3.08,0-3.584-.616-3.584-2.352v-7.42c3.976-.812,7.756-1.54,8.624-1.736a23.842,23.842,0,0,1-4.48,5.684l3.08,1.82a40.129,40.129,0,0,0,5.8-8.148c.252-.5.672-1.148.924-1.54l-2.688-2.072a7.894,7.894,0,0,1-1.988.644c-1.26.308-5.18,1.092-9.268,1.876v-3.3a29.429,29.429,0,0,1,.252-3.22h-4.172A24.217,24.217,0,0,1-20.8-18.9v4c-2.772.5-5.236.924-6.552,1.092l.672,3.668c1.176-.28,3.388-.728,5.88-1.232Zm43.456-15.26-2.3-1.708a10.036,10.036,0,0,1-2.884.364H7.588a31.282,31.282,0,0,1-3.3-.2v3.976c.588-.028,2.128-.2,3.3-.2H17.08a21.7,21.7,0,0,1-4.172,6.86A31.388,31.388,0,0,1,1.428-1.848L4.312,1.176A36.882,36.882,0,0,0,14.84-6.692,63.851,63.851,0,0,1,21.9,1.232L25.088-1.54a78.714,78.714,0,0,0-7.812-8.008,41.167,41.167,0,0,0,4.4-7.7A13.23,13.23,0,0,1,22.652-18.984ZM49.308-8.372a42.173,42.173,0,0,1-4.62,3.164A12.305,12.305,0,0,1,42.56-8.372ZM35.56-13.5H47.572v2.212H35.56Zm12.012-4.732v2.072H35.56v-2.072Zm3.416,9.156v-12.04H42.84V-23.8H39.4v2.688H32.144V-1.484c-1.092.168-2.072.28-2.968.392l.812,3.248C33.348,1.6,37.912.924,42.168.168l-.2-3.108c-2.128.364-4.34.7-6.412.98V-8.372h3.556C41.468-2.464,45.332,1.036,52.3,2.492A12.7,12.7,0,0,1,54.4-.532,18.423,18.423,0,0,1,46.9-3.3a52.02,52.02,0,0,0,6.272-4.06Zm13.076-6.02a32.771,32.771,0,0,1-1.68,7.56c-.7-.5-1.4-.98-2.072-1.4.448-1.96.9-4.032,1.344-6.16Zm1.316-3.136-.56.084H62.3c.364-1.82.7-3.612.98-5.264l-3.136-.28c-.252,1.708-.588,3.612-.952,5.544H56.42v3.052H58.6c-.672,3.248-1.372,6.384-2.016,8.68l2.744,1.428.224-.868c.5.364,1.008.756,1.512,1.148A11.433,11.433,0,0,1,56.5-.112,11.616,11.616,0,0,1,58.492,2.52a15.377,15.377,0,0,0,5.1-5.124A22.47,22.47,0,0,1,66.052.056l2.016-2.688a20.291,20.291,0,0,0-3.024-2.912A40.146,40.146,0,0,0,67.4-17.92Zm17.024,5.6h-6.16v-1.6A42.842,42.842,0,0,0,81.76-20.86l-2.184-1.624-.672.168H67.956v3.08h8.708a24.8,24.8,0,0,1-2.688,3.36H72.94v3.248H67.032v3.136H72.94v8.176c0,.392-.14.5-.616.5-.448.028-1.932,0-3.36-.056a14.093,14.093,0,0,1,1.2,3.276,10.9,10.9,0,0,0,4.676-.616c1.092-.5,1.4-1.4,1.4-3.08v-8.2H82.4Z" transform="translate(-555 9242)" fill="#1e3b99"/>
    <g id="グループ_70" data-name="グループ 70" transform="translate(-981.075 7466.5)">
      <g id="長方形_171" data-name="長方形 171" transform="translate(414 1667)" fill="#fff" stroke="#a5a5a5" stroke-width="1">
        <rect width="24" height="24" stroke="none"/>
        <rect x="0.5" y="0.5" width="23" height="23" fill="none"/>
      </g>
      <path id="パス_13" data-name="パス 13" d="M419.012,1676.015l6.742,7.114,5.838-7.114,8.559-10.431" transform="translate(2 0.415)" fill="none" stroke="#ee84b2" stroke-linecap="round" stroke-width="5"/>
    </g>
  </g>
</svg>
