<svg xmlns="http://www.w3.org/2000/svg" xmlns:xlink="http://www.w3.org/1999/xlink" width="274" height="276" viewBox="0 0 274 276">
  <defs>
    <filter id="パス_57" x="0" y="0" width="274" height="276" filterUnits="userSpaceOnUse">
      <feOffset dy="6" input="SourceAlpha"/>
      <feGaussianBlur result="blur"/>
      <feFlood flood-opacity="0.11"/>
      <feComposite operator="in" in2="blur"/>
      <feComposite in="SourceGraphic"/>
    </filter>
  </defs>
  <g id="グループ_72" data-name="グループ 72" transform="translate(1066 -9082)">
    <g transform="matrix(1, 0, 0, 1, -1066, 9082)" filter="url(#パス_57)">
      <g id="パス_57-2" data-name="パス 57" fill="#fff">
        <path d="M 137 266 C 127.9696502685547 266 118.9462280273438 265.103759765625 110.1803817749023 263.336181640625 C 101.6398849487305 261.6140747070312 93.23942565917969 259.0444946289062 85.21227264404297 255.6988830566406 C 77.33092498779297 252.4140319824219 69.72934722900391 248.3482360839844 62.61861419677734 243.6144561767578 C 55.57553863525391 238.9257354736328 48.95265197753906 233.5411224365234 42.93392181396484 227.6102752685547 C 36.91622924804688 221.680419921875 31.45319175720215 215.1558837890625 26.6965389251709 208.2179565429688 C 21.8957691192627 201.2156219482422 17.77269172668457 193.73046875 14.44184589385986 185.9703826904297 C 11.05023097991943 178.0687255859375 8.445423126220703 169.8000335693359 6.699807643890381 161.3939208984375 C 4.908346176147461 152.7671203613281 4 143.8868865966797 4 135 C 4 126.1131134033203 4.908346176147461 117.2329254150391 6.699807643890381 108.6060791015625 C 8.445423126220703 100.1999588012695 11.05023097991943 91.93126678466797 14.44184589385986 84.02965545654297 C 17.77269172668457 76.26957702636719 21.8957691192627 68.784423828125 26.6965389251709 61.78207778930664 C 31.45319175720215 54.8441162109375 36.91622924804688 48.31961441040039 42.93392181396484 42.38973236083984 C 48.95265197753906 36.45888519287109 55.57553863525391 31.07426834106445 62.61861419677734 26.38553810119629 C 69.72934722900391 21.65176963806152 77.33092498779297 17.58596229553223 85.21227264404297 14.30111503601074 C 93.23942565917969 10.95549964904785 101.6398849487305 8.385923385620117 110.1803817749023 6.66380786895752 C 118.9462280273438 4.896230697631836 127.9696502685547 4 137 4 C 146.0303497314453 4 155.0537719726562 4.896230697631836 163.8196105957031 6.66380786895752 C 172.3601226806641 8.385923385620117 180.7605743408203 10.95549964904785 188.7877349853516 14.30111503601074 C 196.6690826416016 17.58596229553223 204.2706604003906 21.65176963806152 211.3813781738281 26.38553810119629 C 218.4244689941406 31.07426834106445 225.0473480224609 36.45888519287109 231.0660705566406 42.38973236083984 C 237.0837707519531 48.31961441040039 242.5468139648438 54.8441162109375 247.303466796875 61.78207778930664 C 252.1042327880859 68.784423828125 256.227294921875 76.26957702636719 259.5581665039062 84.02965545654297 C 262.9497680664062 91.93126678466797 265.5545654296875 100.1999588012695 267.3002014160156 108.6060791015625 C 269.0916442871094 117.2329254150391 270 126.1131134033203 270 135 C 270 143.8868865966797 269.0916442871094 152.7671203613281 267.3002014160156 161.3939208984375 C 265.5545654296875 169.8000335693359 262.9497680664062 178.0687255859375 259.5581665039062 185.9703826904297 C 256.227294921875 193.73046875 252.1042327880859 201.2156219482422 247.303466796875 208.2179565429688 C 242.5468139648438 215.1558837890625 237.0837707519531 221.680419921875 231.0660705566406 227.6102752685547 C 225.0473480224609 233.5411224365234 218.4244689941406 238.9257354736328 211.3813781738281 243.6144561767578 C 204.2706604003906 248.3482360839844 196.6690826416016 252.4140319824219 188.7877349853516 255.6988830566406 C 180.7605743408203 259.0444946289062 172.3601226806641 261.6140747070312 163.8196105957031 263.336181640625 C 155.0537719726562 265.103759765625 146.0303497314453 266 137 266 Z" stroke="none"/>
        <path d="M 137 8 C 65.86917114257812 8 8 64.97195434570312 8 135 C 8 205.0280456542969 65.86917114257812 262 137 262 C 208.1308288574219 262 266 205.0280456542969 266 135 C 266 64.97195434570312 208.1308288574219 8 137 8 M 137 0 C 212.6629943847656 0 274 60.44154357910156 274 135 C 274 209.5584564208984 212.6629943847656 270 137 270 C 61.33700561523438 270 0 209.5584564208984 0 135 C 0 60.44154357910156 61.33700561523438 0 137 0 Z" stroke="none" fill="#ee84b2"/>
      </g>
    </g>
    <path id="パス_59" data-name="パス 59" d="M-103.208-20.524a1.625,1.625,0,0,1,1.624-1.624,1.619,1.619,0,0,1,1.6,1.624,1.614,1.614,0,0,1-1.6,1.6A1.619,1.619,0,0,1-103.208-20.524Zm-1.736,0a3.1,3.1,0,0,0,.056.532,12.082,12.082,0,0,1-1.6.112h-12.964a31.176,31.176,0,0,1-3.332-.224v3.948c.7-.056,2.044-.112,3.332-.112h13.02a17.6,17.6,0,0,1-3.276,7.9c-2.268,2.856-5.432,5.292-10.976,6.58l3.052,3.36a22.489,22.489,0,0,0,11.256-7.756c2.352-3.108,3.556-7.448,4.2-10.192.084-.252.14-.532.224-.84a1.6,1.6,0,0,0,.364.028,3.358,3.358,0,0,0,3.332-3.332,3.364,3.364,0,0,0-3.332-3.36A3.37,3.37,0,0,0-104.944-20.524Zm13.468-.952v3.612c.812-.056,2.016-.084,2.912-.084H-77.84c1.008,0,2.324.028,3.08.084v-3.612a26.4,26.4,0,0,1-3.024.14h-10.78A23.6,23.6,0,0,1-91.476-21.476Zm19.068,8.12L-74.9-14.9a5.907,5.907,0,0,1-2.044.28H-90.8c-.868,0-2.072-.084-3.248-.168v3.64c1.176-.112,2.576-.14,3.248-.14H-77.28A12.148,12.148,0,0,1-80.164-6.44a18.886,18.886,0,0,1-9.688,4.9l2.772,3.164a20.967,20.967,0,0,0,10-6.048A20.122,20.122,0,0,0-72.94-12.18,10.374,10.374,0,0,1-72.408-13.356Zm4.424,2.464,1.764,3.528A56.105,56.105,0,0,0-56.336-11.4v8.96a31.358,31.358,0,0,1-.2,3.668h4.424a19.25,19.25,0,0,1-.252-3.668V-13.748a51.359,51.359,0,0,0,7.532-6.076l-3.024-2.884a35.9,35.9,0,0,1-7.9,6.8A45.024,45.024,0,0,1-67.984-10.892ZM-20.44-22.344l-2.212.924a35.422,35.422,0,0,1,2.184,3.892l2.24-.98C-18.76-19.544-19.74-21.308-20.44-22.344Zm3.3-1.26-2.212.924a29.18,29.18,0,0,1,2.24,3.836l2.24-.952A43.794,43.794,0,0,0-17.136-23.6ZM-36.9-8.708A33.735,33.735,0,0,1-41.272-.924l3.92,1.652A38.5,38.5,0,0,0-33.208-7.28a65.19,65.19,0,0,0,2.38-8.428c.112-.616.42-1.988.672-2.8l-4.088-.84A40.345,40.345,0,0,1-36.9-8.708ZM-23.072-9.3A86.516,86.516,0,0,1-20.16.588l4.144-1.344c-.784-2.772-2.268-7.252-3.248-9.772-1.064-2.716-3-7.028-4.144-9.184l-3.724,1.2A78.437,78.437,0,0,1-23.072-9.3Zm17.444-12.88L-7.672-19.1c1.848,1.036,4.76,2.94,6.328,4.032l2.1-3.108C-.7-19.18-3.78-21.168-5.628-22.176ZM-10.836-2.3l2.1,3.7A34.071,34.071,0,0,0,.616-2.072,33.808,33.808,0,0,0,11.76-12.124L9.6-15.932A28.543,28.543,0,0,1-1.288-5.432,30.339,30.339,0,0,1-10.836-2.3Zm.9-13.5-2.044,3.108C-10.108-11.7-7.2-9.8-5.6-8.708l2.044-3.136C-4.984-12.852-8.064-14.784-9.94-15.792ZM16.3-12.964v4.4c1.036-.084,2.912-.14,4.508-.14H35.84c1.176,0,2.6.112,3.276.14v-4.4c-.728.056-1.96.168-3.276.168H20.8C19.348-12.8,17.3-12.88,16.3-12.964ZM47.74-17.192H68.32v-2.8H63.756c.728-.812,1.568-1.82,2.38-2.912l-3.388-.952A21.484,21.484,0,0,1,60.4-20.328l1.036.336h-5.32l1.624-.7a13.1,13.1,0,0,0-1.82-3.136l-2.772,1.12a13.525,13.525,0,0,1,1.484,2.716H49.98l1.12-.588a14.481,14.481,0,0,0-2.212-3.08l-2.8,1.428a18.043,18.043,0,0,1,1.6,2.24H44.716v7.756c0,3.864-.168,9.156-2.352,12.852a10.782,10.782,0,0,1,2.492,1.876c2.464-4,2.884-10.444,2.884-14.7Zm14.28,5.88h2.548a22.19,22.19,0,0,1-1.316,4.928,21.021,21.021,0,0,1-1.428-4.368ZM51.8-1.792V-3.36h2.744v1.316Zm0-4.984h2.744v1.344H51.8Zm2.744-3.332v1.26H51.8v-1.26Zm13.944-1.2v-2.6h-5.8c.168-.784.308-1.568.448-2.38l-2.912-.476c-.448,3.416-1.372,6.664-3,8.736v-2.072h.98v-2.408H54.656V-13.86H57.9v-2.324H48.748v2.324h3.024v1.344H48.16v2.408h.952v8.54c-.7.056-1.344.112-1.932.14L47.768,1.2c1.96-.224,4.368-.532,6.776-.84V2.436h2.688V-7.9A18.918,18.918,0,0,1,59.36-5.8a12.907,12.907,0,0,0,.9-1.372,23.437,23.437,0,0,0,1.428,3.64A12.3,12.3,0,0,1,57.26.2a13.241,13.241,0,0,1,1.9,2.352A15.95,15.95,0,0,0,63.28-.9,12.1,12.1,0,0,0,67.2,2.52,11.489,11.489,0,0,1,69.16,0a11.333,11.333,0,0,1-4.2-3.416,25.416,25.416,0,0,0,2.548-7.9Zm6.636-6.552H92.036v3.472h3.556v-6.58H85.4v-2.744H81.872v2.744H71.736v6.58h3.388ZM74.312-7.588a24.421,24.421,0,0,1,4.228,5.8L81.4-3.724A25.509,25.509,0,0,0,76.972-9.3ZM96.18-13.216H89.32V-16.66H85.9v3.444H71.26v3.248H85.9v8.484c0,.476-.2.616-.784.616-.56,0-2.632.028-4.452-.056a12.492,12.492,0,0,1,1.176,3.388c2.632,0,4.508-.056,5.8-.588,1.288-.5,1.68-1.4,1.68-3.3v-8.54h6.86Zm27.5,3.36c0-6.1-4.368-10.92-11.312-10.92-7.252,0-12.852,5.516-12.852,11.984,0,4.732,2.576,8.148,5.684,8.148,3.052,0,5.46-3.472,7.14-9.128a56.626,56.626,0,0,0,1.68-7.588c3.78.644,5.88,3.528,5.88,7.392,0,4.088-2.8,6.664-6.384,7.5a21.536,21.536,0,0,1-2.6.448l2.1,3.332C120.064.224,123.676-3.948,123.676-9.856Zm-20.58.7a8.814,8.814,0,0,1,7.112-8.12,42.028,42.028,0,0,1-1.484,6.776c-1.148,3.78-2.24,5.544-3.416,5.544C104.216-4.956,103.1-6.328,103.1-9.156ZM-64.568,22.108H-47.6v3.5h3.556V19H-54.32V16.312h-3.528V19H-67.956v6.608h3.388Zm15.708,5.1V24.18H-63.28V27.2Zm-1.148,11.788c-1.008,0-1.176-.112-1.176-1.008V32.356h7.672V29.22H-68.46v3.136h6.636c-.42,3.472-1.428,5.88-7.42,7.168a10.4,10.4,0,0,1,1.932,2.968c7.028-1.848,8.568-5.32,9.128-10.136h3.64V38.04c0,3.024.784,3.976,4.032,3.976h3.584c2.66,0,3.5-1.064,3.864-5.124a10.6,10.6,0,0,1-3-1.26c-.112,2.912-.252,3.36-1.176,3.36Zm14.9-12.628a32.257,32.257,0,0,0,7-6.944,33.744,33.744,0,0,0,7.224,6.944Zm8.764,9.072h7.84V32.524h-7.84V29.3H-19.8V27.12A35.5,35.5,0,0,0-16.772,29a16.223,16.223,0,0,1,2.212-3,29.592,29.592,0,0,1-11.984-9.8h-3.444A30.555,30.555,0,0,1-41.356,26.336a12.3,12.3,0,0,1,2.1,2.688,35.826,35.826,0,0,0,3.108-1.932V29.3h6.328v3.22h-7.756v2.912h7.756v3.332h-10v3h23.828v-3h-10.36Zm36.6-8.736-.616.224H5.208l.672-1.092c-.644-.308-1.484-.616-2.408-.98a46.163,46.163,0,0,0,6.468-5.32L7.56,17.656l-.756.2H-9.94V20.9H3.584A29.145,29.145,0,0,1,.028,23.536c-1.568-.588-3.136-1.12-4.4-1.568l-1.652,2.52c1.792.672,4.06,1.568,6.132,2.436h-12.74v3.164h11.06v8.6c0,.42-.168.532-.7.56-.56,0-2.632,0-4.284-.056a11.34,11.34,0,0,1,1.2,3.192,17.5,17.5,0,0,0,5.516-.5C1.512,41.4,1.9,40.56,1.9,38.8V30.088H7.812a35.391,35.391,0,0,1-2.184,3.444l2.856,1.652a37.3,37.3,0,0,0,4.48-7.308Zm5.74,5.964a20.358,20.358,0,0,1-1.484,6.5,16.458,16.458,0,0,1,2.548,1.2,25.888,25.888,0,0,0,1.68-7.224Zm6.244.616a28.5,28.5,0,0,1,1.652,5.4l2.632-.924A31.931,31.931,0,0,0,24.7,32.5Zm8.736-12.264a32.112,32.112,0,0,0,1.372-4l-3.416-.728a22.294,22.294,0,0,1-4.62,9.324l-.2-.336-2.352,1.036c.336.588.672,1.26.98,1.932l-2.828.112a90.14,90.14,0,0,0,5.348-7.588l-2.828-1.176a43.781,43.781,0,0,1-2.576,4.592c-.28-.364-.616-.784-.98-1.176,1.008-1.568,2.156-3.724,3.164-5.656L19.1,16.312a37.013,37.013,0,0,1-2.044,4.872L16.38,20.6l-1.568,2.3a26.378,26.378,0,0,1,3.36,3.836c-.42.616-.868,1.2-1.288,1.736l-2.072.084.28,2.912,4.144-.28V42.464h2.94V30.956l1.6-.112a15.238,15.238,0,0,1,.392,1.512l2.52-1.176A22.3,22.3,0,0,0,24.5,25.944a21.4,21.4,0,0,1,2.632,1.848,23.069,23.069,0,0,0,2.38-3.612H37.24c-.308,9.548-.728,13.636-1.568,14.5a1.382,1.382,0,0,1-1.176.476c-.756,0-2.352,0-4.116-.168a7.959,7.959,0,0,1,1.12,3.36,26.729,26.729,0,0,0,4.368-.084,3.47,3.47,0,0,0,2.688-1.54c1.176-1.484,1.568-5.908,1.932-18.172.028-.42.028-1.54.028-1.54Zm3.164,12.8a26.335,26.335,0,0,0-3.64-6.272l-2.66,1.344a26.451,26.451,0,0,1,3.416,6.468ZM45.668,25.1c.308-.616.644-1.316.952-2.1h2.828v2.1ZM52.612,23h5.012V19.98H52.612V16.452H49.448V19.98H47.656a26.09,26.09,0,0,0,.644-2.548l-3.052-.644a21.862,21.862,0,0,1-2.576,7.252,25.883,25.883,0,0,1,2.52,1.064h-2.1v3h6.356v2.044H44.184V40.2h2.968V33.112h2.3v9.3h3.164v-9.3h2.464V37.2c0,.28-.084.336-.336.336A12.634,12.634,0,0,1,53,37.508a10.473,10.473,0,0,1,.812,2.828,6.1,6.1,0,0,0,3.248-.5c.812-.476,1.008-1.26,1.008-2.548v-7.14h-5.46V28.1h6.132v-3H52.612Zm10.5-4.424H60V34.344h3.108Zm1.9-1.82v21.7c0,.476-.168.588-.616.616-.476,0-1.932,0-3.36-.056a14.623,14.623,0,0,1,.98,3.36,11.479,11.479,0,0,0,4.816-.644c1.008-.56,1.372-1.456,1.372-3.248V16.76Z" transform="translate(-929 9219)" fill="#1e3b99"/>
    <g id="グループ_69" data-name="グループ 69" transform="translate(-1359 7466.5)">
      <g id="長方形_171" data-name="長方形 171" transform="translate(414 1667)" fill="#fff" stroke="#a5a5a5" stroke-width="1">
        <rect width="24" height="24" stroke="none"/>
        <rect x="0.5" y="0.5" width="23" height="23" fill="none"/>
      </g>
      <path id="パス_13" data-name="パス 13" d="M419.012,1676.015l6.742,7.114,5.838-7.114,8.559-10.431" transform="translate(2 0.415)" fill="none" stroke="#ee84b2" stroke-linecap="round" stroke-width="5"/>
    </g>
  </g>
</svg>
