<svg xmlns="http://www.w3.org/2000/svg" xmlns:xlink="http://www.w3.org/1999/xlink" width="274" height="276" viewBox="0 0 274 276">
  <defs>
    <filter id="パス_56" x="0" y="0" width="274" height="276" filterUnits="userSpaceOnUse">
      <feOffset dy="6" input="SourceAlpha"/>
      <feGaussianBlur result="blur"/>
      <feFlood flood-opacity="0.11"/>
      <feComposite operator="in" in2="blur"/>
      <feComposite in="SourceGraphic"/>
    </filter>
  </defs>
  <g id="グループ_71" data-name="グループ 71" transform="translate(1442 -9082)">
    <g transform="matrix(1, 0, 0, 1, -1442, 9082)" filter="url(#パス_56)">
      <g id="パス_56-2" data-name="パス 56" fill="#fff">
        <path d="M 137 266 C 127.9696502685547 266 118.9462280273438 265.103759765625 110.1803817749023 263.336181640625 C 101.6398849487305 261.6140747070312 93.23942565917969 259.0444946289062 85.21227264404297 255.6988830566406 C 77.33092498779297 252.4140319824219 69.72934722900391 248.3482360839844 62.61861419677734 243.6144561767578 C 55.57553863525391 238.9257354736328 48.95265197753906 233.5411224365234 42.93392181396484 227.6102752685547 C 36.91622924804688 221.680419921875 31.45319175720215 215.1558837890625 26.6965389251709 208.2179565429688 C 21.8957691192627 201.2156219482422 17.77269172668457 193.73046875 14.44184589385986 185.9703826904297 C 11.05023097991943 178.0687255859375 8.445423126220703 169.8000335693359 6.699807643890381 161.3939208984375 C 4.908346176147461 152.7671203613281 4 143.8868865966797 4 135 C 4 126.1131134033203 4.908346176147461 117.2329254150391 6.699807643890381 108.6060791015625 C 8.445423126220703 100.1999588012695 11.05023097991943 91.93126678466797 14.44184589385986 84.02965545654297 C 17.77269172668457 76.26957702636719 21.8957691192627 68.784423828125 26.6965389251709 61.78207778930664 C 31.45319175720215 54.8441162109375 36.91622924804688 48.31961441040039 42.93392181396484 42.38973236083984 C 48.95265197753906 36.45888519287109 55.57553863525391 31.07426834106445 62.61861419677734 26.38553810119629 C 69.72934722900391 21.65176963806152 77.33092498779297 17.58596229553223 85.21227264404297 14.30111503601074 C 93.23942565917969 10.95549964904785 101.6398849487305 8.385923385620117 110.1803817749023 6.66380786895752 C 118.9462280273438 4.896230697631836 127.9696502685547 4 137 4 C 146.0303497314453 4 155.0537719726562 4.896230697631836 163.8196105957031 6.66380786895752 C 172.3601226806641 8.385923385620117 180.7605743408203 10.95549964904785 188.7877349853516 14.30111503601074 C 196.6690826416016 17.58596229553223 204.2706604003906 21.65176963806152 211.3813781738281 26.38553810119629 C 218.4244689941406 31.07426834106445 225.0473480224609 36.45888519287109 231.0660705566406 42.38973236083984 C 237.0837707519531 48.31961441040039 242.5468139648438 54.8441162109375 247.303466796875 61.78207778930664 C 252.1042327880859 68.784423828125 256.227294921875 76.26957702636719 259.5581665039062 84.02965545654297 C 262.9497680664062 91.93126678466797 265.5545654296875 100.1999588012695 267.3002014160156 108.6060791015625 C 269.0916442871094 117.2329254150391 270 126.1131134033203 270 135 C 270 143.8868865966797 269.0916442871094 152.7671203613281 267.3002014160156 161.3939208984375 C 265.5545654296875 169.8000335693359 262.9497680664062 178.0687255859375 259.5581665039062 185.9703826904297 C 256.227294921875 193.73046875 252.1042327880859 201.2156219482422 247.303466796875 208.2179565429688 C 242.5468139648438 215.1558837890625 237.0837707519531 221.680419921875 231.0660705566406 227.6102752685547 C 225.0473480224609 233.5411224365234 218.4244689941406 238.9257354736328 211.3813781738281 243.6144561767578 C 204.2706604003906 248.3482360839844 196.6690826416016 252.4140319824219 188.7877349853516 255.6988830566406 C 180.7605743408203 259.0444946289062 172.3601226806641 261.6140747070312 163.8196105957031 263.336181640625 C 155.0537719726562 265.103759765625 146.0303497314453 266 137 266 Z" stroke="none"/>
        <path d="M 137 8 C 65.86917114257812 8 8 64.97195434570312 8 135 C 8 205.0280456542969 65.86917114257812 262 137 262 C 208.1308288574219 262 266 205.0280456542969 266 135 C 266 64.97195434570312 208.1308288574219 8 137 8 M 137 0 C 212.6629943847656 0 274 60.44154357910156 274 135 C 274 209.5584564208984 212.6629943847656 270 137 270 C 61.33700561523438 270 0 209.5584564208984 0 135 C 0 60.44154357910156 61.33700561523438 0 137 0 Z" stroke="none" fill="#ee84b2"/>
      </g>
    </g>
    <path id="パス_58" data-name="パス 58" d="M-85.876-1.68V-7.14h9.492v5.46Zm4.928-16.38a21.945,21.945,0,0,1-3.892,5.124,39.483,39.483,0,0,0-4.452-3.7c.476-.476.924-.952,1.372-1.428Zm8.036,7.9h-10a25.92,25.92,0,0,0,6.5-9.772l-2.3-1.2-.56.168h-6.356c.5-.728.98-1.456,1.4-2.184l-3.752-.7a22.368,22.368,0,0,1-9.3,8.9,11.6,11.6,0,0,1,2.352,2.6,28.821,28.821,0,0,0,3.108-2.128,38.9,38.9,0,0,1,4.284,3.864,31.129,31.129,0,0,1-9.8,4.844A10.641,10.641,0,0,1-95.4-2.8a35.9,35.9,0,0,0,6.188-2.744V2.408h3.332V1.316h9.492v1.12h3.472Zm8.932,4.34v-1.82H-59.3v1.82Zm4.676-6.02v1.736H-63.98v-1.736Zm3.22-2.8h-11.06V2.268h3.164V-3.388H-59.3V-.9c0,.336-.112.448-.448.448-.364.028-1.484.028-2.52-.028a11.514,11.514,0,0,1,1.064,2.828,8.781,8.781,0,0,0,3.892-.532c.952-.476,1.232-1.26,1.232-2.688ZM-48.1-1.288c0,.392-.14.5-.588.5-.476.028-1.932.028-3.36-.028a11.675,11.675,0,0,1,1.2,3.136,10.988,10.988,0,0,0,4.592-.56c1.12-.532,1.428-1.344,1.428-3V-15.148H-48.1Zm-2.52-13.076h-3.052V-2.94h3.052Zm1.6-5.208c.7-.98,1.456-2.072,2.128-3.164L-50.512-23.8a31.39,31.39,0,0,1-2.3,4.228h-7.784l1.54-.532a15.471,15.471,0,0,0-2.6-3.64l-3.164,1.092a18.777,18.777,0,0,1,2.1,3.08h-5.964v3h25.34v-3Zm20.636-2.884-3.7-.308a15.567,15.567,0,0,1-.56,3.22h-1.344a36.433,36.433,0,0,1-4.928-.336V-16.6c1.54.112,3.584.168,4.732.168h.364a27.479,27.479,0,0,1-6.188,7.728l3,2.24a32.238,32.238,0,0,1,2.6-3.08,6.82,6.82,0,0,1,4.368-1.932,2.154,2.154,0,0,1,1.96.952c-3.192,1.652-6.552,3.892-6.552,7.476,0,3.612,3.248,4.676,7.644,4.676a70.043,70.043,0,0,0,7.924-.476l.112-3.612a45.8,45.8,0,0,1-7.952.784c-2.744,0-4.06-.42-4.06-1.96,0-1.4,1.12-2.492,3.22-3.7-.028,1.232-.056,2.576-.14,3.416h3.36c-.028-1.288-.084-3.36-.112-4.928,1.708-.784,3.3-1.4,4.564-1.9.952-.364,2.436-.924,3.332-1.176l-1.4-3.248c-1.036.532-2.016.98-3.108,1.456-1.148.5-2.324.98-3.78,1.652a3.791,3.791,0,0,0-3.724-2.156,9.488,9.488,0,0,0-3.164.56,19.55,19.55,0,0,0,1.6-2.856,83.409,83.409,0,0,0,9.128-.7l.028-3.248a70.887,70.887,0,0,1-7.924.812A26.788,26.788,0,0,0-28.392-22.456ZM-5.32-19.18v3.948H-8.932V-19.18ZM-8.932-8.12v-4.144H-5.32V-8.12ZM-2.24-5.1V-22.2h-9.772V-2.688h3.08V-5.1ZM2.828-9.352a30.914,30.914,0,0,0,.14-3.164v-.42h6.02v3.584Zm6.16-10.164v3.584H2.968v-3.584Zm3.3-3.08H-.308v10.08C-.308-8.26-.728-3.052-5.432.42A12.49,12.49,0,0,1-2.94,2.632,14.312,14.312,0,0,0,2.408-6.356h6.58v4.928c0,.476-.168.644-.672.644-.476.028-2.184.056-3.7-.028A11.437,11.437,0,0,1,5.8,2.408c2.324,0,3.92-.084,5.04-.616C11.928,1.26,12.292.364,12.292-1.4Zm14.644.476-4.172-.42a31.035,31.035,0,0,1-.588,5.936c-1.428.112-2.744.2-3.612.224a26.735,26.735,0,0,1-3,0l.336,3.808c.84-.14,2.324-.336,3.108-.476.532-.056,1.4-.168,2.408-.28-1.008,3.836-2.94,9.492-5.656,13.16L19.4,1.288C21.98-2.828,24.052-9.464,25.116-13.72c.784-.056,1.484-.112,1.932-.112,1.764,0,2.716.308,2.716,2.548,0,2.772-.364,6.16-1.12,7.756a2.075,2.075,0,0,1-2.1,1.2A16.405,16.405,0,0,1,23.1-2.912l.616,3.7a18.114,18.114,0,0,0,3.36.392c2.1,0,3.668-.616,4.592-2.576,1.2-2.436,1.6-6.972,1.6-10.276,0-4.032-2.1-5.348-5.068-5.348-.588,0-1.428.056-2.352.112.2-1.008.392-2.044.588-2.884C26.572-20.5,26.768-21.392,26.936-22.12Zm9.632,2.632L33.236-18.06c1.988,2.464,3.976,7.532,4.7,10.64L41.5-9.072A48.4,48.4,0,0,0,36.568-19.488ZM56.2-19.88c.168.476.336,1.064.56,1.708A58.615,58.615,0,0,1,46-18.564l.056,3.584a75.084,75.084,0,0,0,11.956.112A36.792,36.792,0,0,0,60.648-9.8c-.868-.056-2.716-.224-4.088-.336l-.28,2.968c2.352.2,5.88.56,7.448.868l1.736-2.52A17.654,17.654,0,0,1,63.952-10.7,30.669,30.669,0,0,1,61.46-15.26a37.239,37.239,0,0,0,4.984-1.008L66-19.8a42.165,42.165,0,0,1-5.74,1.288,32.744,32.744,0,0,1-1.176-4.4l-3.78.448C55.664-21.532,55.972-20.524,56.2-19.88ZM51.6-9.016l-3.5-.812A11.461,11.461,0,0,0,46.62-4.62c0,4.032,3.612,6.244,9.324,6.272A39.5,39.5,0,0,0,63.476.98l.2-3.528a38.671,38.671,0,0,1-7.5.672c-3.836,0-5.936-1.008-5.936-3.36A6.745,6.745,0,0,1,51.6-9.016Zm28.84.252a2.093,2.093,0,0,1,2.128-2.212A2.022,2.022,0,0,1,84.42-10c.364,2.464-.644,3.36-1.82,3.36A2.114,2.114,0,0,1,80.444-8.764Zm10.64-14.252-2.3.952a35.55,35.55,0,0,1,1.82,3.164h-3.36c0-.336.028-.644.028-.868.028-.448.112-1.96.2-2.408H83.44c.056.364.168,1.316.252,2.436a7.63,7.63,0,0,1,.028.868c-3.78.056-8.876.168-12.068.2l.084,3.388c3.444-.2,7.812-.392,12.04-.448.028.616.028,1.26.028,1.876a7.267,7.267,0,0,0-1.12-.084A5.327,5.327,0,0,0,77.056-8.68,4.953,4.953,0,0,0,81.9-3.556a6.05,6.05,0,0,0,1.288-.14c-1.54,1.68-4.032,2.6-6.86,3.192l2.968,3C86.156.56,88.312-4.06,88.312-7.728a7.041,7.041,0,0,0-1.064-3.892c0-1.232,0-2.716-.028-4.144,3.78,0,6.44.084,8.12.168l.028-3.332c-.84,0-2.464,0-4.256.028l1.932-.812A31.9,31.9,0,0,0,91.084-23.016Zm3.752-.784-2.324.952a24.435,24.435,0,0,1,1.96,3.3l2.352-.98A30.975,30.975,0,0,0,94.836-23.8ZM-71.12,38.32H-92.4V20.26h20.552V17.292h-23.8V42.464H-92.4V41.316h21.28Zm-12.964-5.46h6.272v1.96h-6.272Zm11.956-3.584V26.728h-10.36l.42-1.176L-84,25.16v-.532h4.116V26h2.94V24.628h3.892V22.136h-3.892V20.848h-2.94v1.288H-84V20.848h-2.94v1.288h-3.948v2.492h3.948V26h1.568c-.112.252-.2.476-.308.728h-5.544v2.548h4.032a13.629,13.629,0,0,1-4.48,3.892,17.869,17.869,0,0,1,2.184,2.184,16.294,16.294,0,0,0,2.352-1.792v3.612h12.544V30.508h-9.884c.28-.392.532-.812.784-1.232Zm14.252,9.044V32.86h9.492v5.46Zm4.928-16.38a21.945,21.945,0,0,1-3.892,5.124,39.483,39.483,0,0,0-4.452-3.7c.476-.476.924-.952,1.372-1.428Zm8.036,7.9h-10a25.92,25.92,0,0,0,6.5-9.772l-2.3-1.2-.56.168h-6.356c.5-.728.98-1.456,1.4-2.184l-3.752-.7a22.368,22.368,0,0,1-9.3,8.9,11.6,11.6,0,0,1,2.352,2.6,28.82,28.82,0,0,0,3.108-2.128,38.894,38.894,0,0,1,4.284,3.864,31.129,31.129,0,0,1-9.8,4.844A10.641,10.641,0,0,1-67.4,37.2a35.9,35.9,0,0,0,6.188-2.744v7.952h3.332V41.316h9.492v1.12h3.472Zm17.136,2.576V29.78H-25v1.68c0,.308,0,.644-.028.952Zm8.736-2.632v2.632h-3c.028-.28.028-.588.028-.868V29.78ZM-26.768,22.7a17.891,17.891,0,0,0,3.248-3.528A18.954,18.954,0,0,0-20.132,22.7ZM-16.044,34.96V27.232h-5.964V25.44h3.7V24.068A22.576,22.576,0,0,0-16.1,25.356a18.884,18.884,0,0,1,1.708-2.912,17.717,17.717,0,0,1-7.7-6.132h-3.024a17.351,17.351,0,0,1-6.5,5.908v-.2H-34.16v-5.74h-3.08v5.74h-3.416V25.1h3.22A27.653,27.653,0,0,1-41.3,34.512a16.445,16.445,0,0,1,1.512,2.968A22.4,22.4,0,0,0-37.24,32.1v10.3h3.08v-11.9c.588,1.176,1.148,2.38,1.456,3.192l1.68-2.576c-.42-.7-2.38-3.7-3.136-4.676V25.1h2.548V23.76a12.513,12.513,0,0,1,.812,1.624,17.746,17.746,0,0,0,2.3-1.372V25.44H-25v1.792H-30.66V34.96h5.124c-.784,1.988-2.66,3.808-6.944,5.152a12.754,12.754,0,0,1,1.764,2.464c4.116-1.316,6.356-3.3,7.532-5.544a11.848,11.848,0,0,0,6.692,5.516,7.917,7.917,0,0,1,1.9-2.772c-2.688-.84-4.788-1.9-6.412-4.816Zm8.232-6.72a23.417,23.417,0,0,0,6.076-5.264v4.508H1.54v-4.4A23.266,23.266,0,0,0,7.784,28.24ZM-4.76,39.02V37.844H4.648V39.02Zm0-4.648H4.648v1.176H-4.76Zm9.408-2.3H-4.76v-1.12H4.648Zm7.84-9.8V19.392H1.54V16.284H-1.736v3.108H-12.46v2.884h7.532a21.848,21.848,0,0,1-8.316,5.04,13.938,13.938,0,0,1,2.072,2.576,23.542,23.542,0,0,0,3.164-1.54V39.02h-4.62v2.912H12.684V39.02H8.092V28.408a19.977,19.977,0,0,0,2.94,1.372,12.623,12.623,0,0,1,2.156-2.66,22.748,22.748,0,0,1-8.6-4.844Zm14.644-4.7-3.948-.224a15,15,0,0,1-.028,2.492c-.056.644-.14,1.4-.224,2.268a26.443,26.443,0,0,1-5.768-1.064l-.2,3.22a32.879,32.879,0,0,0,5.572,1.008c-.14,1.26-.308,2.576-.476,3.836a25.73,25.73,0,0,1-5.516-1.12l-.2,3.388a31.328,31.328,0,0,0,5.376.924c-.112,1.148-.2,2.156-.2,2.828,0,4.676,3.108,6.58,7.5,6.58,6.132,0,9.94-3.024,9.94-7.252,0-2.38-.868-4.368-2.716-6.72l-3.948.84C34.16,30.312,35.2,32.1,35.2,34.008c0,2.3-2.128,4.088-6.048,4.088-2.744,0-4.172-1.232-4.172-3.556,0-.5.056-1.2.112-2.044h1.12c1.764,0,3.388-.112,4.956-.252l.084-3.332a48.5,48.5,0,0,1-5.628.336h-.2c.14-1.26.308-2.576.476-3.808a50.462,50.462,0,0,0,5.46-.28l.112-3.332a39.493,39.493,0,0,1-5.124.392c.112-.924.224-1.68.308-2.156A25.064,25.064,0,0,1,27.132,17.572ZM54.572,27.82V32.3h-5.32V27.82Zm3.3,7.672V24.656H46V37.62h3.248V35.492ZM68.656,18.16H43.428v3.36H61.936V38.152c0,.588-.252.784-.9.784-.672,0-3.108.028-5.1-.084a15.1,15.1,0,0,1,1.372,3.528c2.856,0,4.928-.056,6.328-.616,1.316-.56,1.792-1.54,1.792-3.556V21.52h3.22Zm24.612,10.7c2.576,0,3.444-1.036,3.808-4.62A9.2,9.2,0,0,1,94.136,23c-.112,2.436-.308,2.856-1.2,2.856H89.88c-1.064,0-1.232-.112-1.232-1.12V23.088a52.722,52.722,0,0,0,7.168-2.632l-2.128-2.408a43.624,43.624,0,0,1-5.04,2.324v-4h-3.3V24.8c0,3.08.784,4.06,4.06,4.06Zm-17.612,5.8V33h4.2v1.652Zm4.2-5.572v1.456h-4.2V29.08Zm3.276-2.744H72.576V42.408h3.08V37.116h4.2v1.876c0,.336-.112.42-.448.42a23.262,23.262,0,0,1-2.464,0,13.667,13.667,0,0,1,1.064,2.94,8.3,8.3,0,0,0,3.92-.56c.924-.476,1.2-1.288,1.2-2.744Zm-4.2-7.14c.448.728.9,1.512,1.316,2.3l-3.724.168c.7-1.484,1.456-3.164,2.1-4.788l-3.472-.7A44.233,44.233,0,0,1,73.108,21.8c-.784.028-1.512.056-2.184.056l.28,3.164c2.856-.168,6.664-.392,10.36-.644a10.341,10.341,0,0,1,.5,1.484l3.052-1.232a26.722,26.722,0,0,0-3.388-6.468ZM89.908,39.328c-1.092,0-1.288-.14-1.288-1.12v-2.24A42.45,42.45,0,0,0,96.1,33l-2.212-2.436A31.713,31.713,0,0,1,88.62,33.2v-3.78H85.344v8.792c0,3.08.812,4.032,4.088,4.032h3.976c2.688,0,3.528-1.092,3.892-5.04a10.366,10.366,0,0,1-2.912-1.232c-.14,2.828-.336,3.36-1.288,3.36Z" transform="translate(-1305 9213)" fill="#1e3b99"/>
    <g id="グループ_68" data-name="グループ 68" transform="translate(-1733 7466.5)">
      <g id="長方形_171" data-name="長方形 171" transform="translate(414 1667)" fill="#fff" stroke="#a5a5a5" stroke-width="1">
        <rect width="24" height="24" stroke="none"/>
        <rect x="0.5" y="0.5" width="23" height="23" fill="none"/>
      </g>
      <path id="パス_13" data-name="パス 13" d="M419.012,1676.015l6.742,7.114,5.838-7.114,8.559-10.431" transform="translate(2 0.415)" fill="none" stroke="#ee84b2" stroke-linecap="round" stroke-width="5"/>
    </g>
  </g>
</svg>
