<svg xmlns="http://www.w3.org/2000/svg" width="662.641" height="158.94" viewBox="0 0 662.641 158.94">
  <g id="グループ_56" data-name="グループ 56" transform="translate(22 568.86)">
    <path id="感染症検査の_プライベートクリニック_-_アウトライン" data-name="感染症検査の
プライベートクリニック - アウトライン" d="M-135.839-58.86a7.494,7.494,0,0,1,2.14.312,35.348,35.348,0,0,1,10.907,5.31,7.5,7.5,0,0,1,.758.7,7.472,7.472,0,0,1,2.916,1.42l1.786-3.126a7.5,7.5,0,0,1,8.421-3.532,77.208,77.208,0,0,1,11.953,4.21,7.5,7.5,0,0,1,6.833-4.7l7.2-.12a7.5,7.5,0,0,1,5.454,2.221,7.5,7.5,0,0,1,2.093,4.2h3.438a7.5,7.5,0,0,1,7.5,7.5v2.693a7.482,7.482,0,0,1,.655.412,7.469,7.469,0,0,1,2.654-2.165l5.16-2.52.038-.018A7.5,7.5,0,0,1-48.66-51.72h10.321A7.5,7.5,0,0,1-30.9-58.26h7.56A7.5,7.5,0,0,1-15.9-51.72H-2.04A7.468,7.468,0,0,1,2.7-50.033v-.787a7.5,7.5,0,0,1,7.5-7.5h6.6a7.5,7.5,0,0,1,7.5,7.5v2.339a28.949,28.949,0,0,0,5.515-6.246A7.5,7.5,0,0,1,36.18-58.26h6.48a7.5,7.5,0,0,1,6.09,3.123,33.018,33.018,0,0,0,7.81,7.683A7.5,7.5,0,0,1,63.3-51.66H78.827a7.5,7.5,0,0,1,7.453-6.66H93.3a7.5,7.5,0,0,1,7.453,6.66H116.76a7.5,7.5,0,0,1,7.5,7.5v4.332A35.767,35.767,0,0,1,151.38-52.02c18.391,0,31.74,13,31.74,30.9,0,16.8-10.921,28.521-29.213,31.352a7.5,7.5,0,0,1-7.492-3.413L144.5,3.782A16.2,16.2,0,0,1,136.02,6.12a17.151,17.151,0,0,1-11.34-4.3V4.14a7.5,7.5,0,0,1-7.5,7.5H62.94a7.472,7.472,0,0,1-3.162-.7,7.5,7.5,0,0,1-7.805,1.519,35.911,35.911,0,0,1-11.8-7,40.224,40.224,0,0,1-13.712,7.205,7.493,7.493,0,0,1-6.291-.8,7.468,7.468,0,0,1-3.373.8H10.2A7.5,7.5,0,0,1,3.645,8.808,7.481,7.481,0,0,1-1.92,11.28H-43.14a7.473,7.473,0,0,1-3.118-.677A7.5,7.5,0,0,1-52.051,12.7a7.5,7.5,0,0,1-5.46-3.02A20.763,20.763,0,0,0-59.75,7.507c-.146.22-.287.438-.417.649A7.5,7.5,0,0,1-69,11.285,60.008,60.008,0,0,1-79.058,6.7,7.5,7.5,0,0,1-86.4,12.66h-7.26a7.5,7.5,0,0,1-7.294-5.747,58.923,58.923,0,0,1-9.976,4.707,7.5,7.5,0,0,1-8.941-3.168c-.133-.219-.3-.467-.483-.73l-4.692,2.346a7.5,7.5,0,0,1-6.14.255,7.5,7.5,0,0,1-2.107-1.279c-2.336,1.777-5.612,2.9-10.228,2.9h-9.6c-4.18,0-9.148-.528-12.638-3.591q-.854.811-1.772,1.526a7.5,7.5,0,0,1-8.8.305l-5.88-3.96a7.5,7.5,0,0,1-3.306-5.96,7.5,7.5,0,0,1,2.884-6.175,11.644,11.644,0,0,0,2.074-2.132,14.507,14.507,0,0,0-1.549-1.187,7.831,7.831,0,0,1-3.7-5.246,7.6,7.6,0,0,1,1.474-6.145c3.311-4,3.736-10.445,3.736-15.616v-9a7.5,7.5,0,0,1,7.5-7.5h17.89a7.5,7.5,0,0,1,1.862-3.3,7.5,7.5,0,0,1,5.388-2.283h6.66a7.5,7.5,0,0,1,2.045.282A7.508,7.508,0,0,1-135.839-58.86ZM157.312-15.078a7.982,7.982,0,0,0,2.708-6.282,13.657,13.657,0,0,0-.174-2.246c-.4,1.6-.852,3.232-1.36,4.877Q157.923-16.831,157.312-15.078ZM117.636-9.586a31.285,31.285,0,0,1-1.084-5.4,7.521,7.521,0,0,1-1.712.492v4.9h2.34Q117.41-9.6,117.636-9.586Zm-52.3-4.608a7.52,7.52,0,0,1-2.22-.566v3.96a7.55,7.55,0,0,1-.1,1.2H65.34ZM-278.28,28.32a14.678,14.678,0,0,1,14.267,11.4,7.5,7.5,0,0,1,2.479-4.4,7.5,7.5,0,0,1,5.975-1.759,42.236,42.236,0,0,0,5.179.225h23.1a47.445,47.445,0,0,0,5.419-.225,7.5,7.5,0,0,1,5.975,1.759A7.5,7.5,0,0,1-213.3,40.98v7.74a7.5,7.5,0,0,1-.32,2.166l1.8,1.114a7.48,7.48,0,0,1,3.317,4.5q.175-.054.354-.1a88.557,88.557,0,0,0,24.169-9.871,69.992,69.992,0,0,0,15.046-12.95,7.5,7.5,0,0,1,5.34-2.721,7.5,7.5,0,0,1,5.628,2.059l6.48,6.18a7.5,7.5,0,0,1,2.324,5.363,7.5,7.5,0,0,1-2.232,5.4A116.446,116.446,0,0,1-165.3,61.487V81.78a43.125,43.125,0,0,0,.294,5.965,7.879,7.879,0,0,1-1.48,6.444,7.6,7.6,0,0,1-5.775,2.951h-9.48a7.505,7.505,0,0,1-5.716-2.654,7.517,7.517,0,0,1-1.682-6.079,58.26,58.26,0,0,0,.318-6.627V74.331a118.625,118.625,0,0,1-11.573,4.087,7.5,7.5,0,0,1-8.815-3.844l-2.7-5.391a45.742,45.742,0,0,1-8.312,13.365A52.545,52.545,0,0,1-245.169,97.7a7.5,7.5,0,0,1-7.672-2.278l-5.94-6.78a7.5,7.5,0,0,1-1.469-7.328,7.5,7.5,0,0,1,5.592-4.959,36.589,36.589,0,0,0,14.192-6.035H-255.18c-1.293,0-3.986.051-6.249.266a7.5,7.5,0,0,1-5.757-1.917,7.5,7.5,0,0,1-2.454-5.549v-7.8q0-.251.017-.5a14.632,14.632,0,0,1-3.389,1.86c-2.3,8.967-5.482,16.213-9.547,21.586-6.6,8.8-16.212,15.457-27.777,19.225a7.5,7.5,0,0,1-7.875-2.088l-6.54-7.2a7.5,7.5,0,0,1-1.608-7.277,7.5,7.5,0,0,1,5.462-5.071c11.134-2.587,16.186-7.482,19.344-11.459a23.447,23.447,0,0,0,2.859-4.756H-316.56c-2.529,0-5.168.106-6.542.216a7.5,7.5,0,0,1-5.686-1.965A7.5,7.5,0,0,1-331.2,52.38V43.92a7.5,7.5,0,0,1,2.572-5.654,7.5,7.5,0,0,1,5.953-1.776,57.229,57.229,0,0,0,6.115.41h24.915A14.721,14.721,0,0,1-278.28,28.32Zm14.16,19.766V46.745a14.515,14.515,0,0,1-.48,1.49Q-264.362,48.152-264.12,48.086ZM55.62,29.82a7.5,7.5,0,0,1,2.342.375l8.76,2.88A7.5,7.5,0,0,1,71.8,39.12h.8a11.969,11.969,0,0,0,3.036-.4,7.5,7.5,0,0,1,6.125.794l6.12,3.78a7.5,7.5,0,0,1,2.55,10.139A16.671,16.671,0,0,0,89.1,56.286,70.025,70.025,0,0,1,77.366,78.738c-6.972,8.514-15.646,14.6-27.339,19.2a7.5,7.5,0,0,1-7.759-1.4l-7.08-6.36a7.5,7.5,0,0,1,2.873-12.768C49.519,74,54.774,69.349,58.746,64.829A29.461,29.461,0,0,0,61.576,60.9H59.619A74.175,74.175,0,0,1,45.153,74.111a7.5,7.5,0,0,1-8.7-.166l-6.72-4.98a7.5,7.5,0,0,1-.848-.733l-3.234,7.83a7.5,7.5,0,0,1-10.414,3.779c-3.031-1.589-6.846-3.261-10.678-4.8V81.24c0,1.589.285,5.425.5,7.672a7.5,7.5,0,0,1-1.91,5.768A7.5,7.5,0,0,1-2.4,97.14h-9.36a7.5,7.5,0,0,1-5.683-2.606,7.5,7.5,0,0,1-1.734-6.007,57.175,57.175,0,0,0,.517-7.287V46.74a34.555,34.555,0,0,0-.454-5.729,7.5,7.5,0,0,1,1.554-6.226,7.5,7.5,0,0,1,5.8-2.745H-2.4a7.5,7.5,0,0,1,5.6,2.507,7.5,7.5,0,0,1,1.855,5.845A57.355,57.355,0,0,0,4.56,46.74V50.1a189.635,189.635,0,0,1,20.875,8.085,7.488,7.488,0,0,1,2.031,1.455,7.5,7.5,0,0,1,2.821-3.1A45.117,45.117,0,0,0,46.436,39.85,22.028,22.028,0,0,0,48.37,35.4,7.5,7.5,0,0,1,55.62,29.82Zm240,0a7.5,7.5,0,0,1,2.342.375l8.76,2.88a7.5,7.5,0,0,1,5.08,6.045h.8a11.969,11.969,0,0,0,3.036-.4,7.5,7.5,0,0,1,6.125.794l6.12,3.78a7.5,7.5,0,0,1,2.55,10.139,16.672,16.672,0,0,0-1.328,2.848,70.025,70.025,0,0,1-11.737,22.452c-6.972,8.514-15.646,14.6-27.339,19.2a7.5,7.5,0,0,1-7.759-1.4l-7.08-6.36a7.5,7.5,0,0,1,2.873-12.768c11.458-3.409,16.713-8.062,20.685-12.582a29.46,29.46,0,0,0,2.829-3.929h-1.957a74.175,74.175,0,0,1-14.466,13.211,7.5,7.5,0,0,1-8.7-.166l-6.72-4.98a7.5,7.5,0,0,1-2.521-3.3,53.411,53.411,0,0,1-8.438,16.619A54.128,54.128,0,0,1,235.38,99.6a7.5,7.5,0,0,1-7.993-1.767l-6.3-6.42a7.5,7.5,0,0,1,3.441-12.505,28.762,28.762,0,0,0,3.51-1.194l-.752.284a7.5,7.5,0,0,1-9.8-4.766,117.7,117.7,0,0,0-4.89-12.521A7.5,7.5,0,0,1,216.65,50.06l7.2-2.58a7.481,7.481,0,0,1,5.1.014,7.5,7.5,0,0,1,1.875-.921l7.14-2.34a7.5,7.5,0,0,1,9.2,4.1c.117.265.251.58.4.936a7.5,7.5,0,0,1,8.775-3.364l8.4,2.7a7.5,7.5,0,0,1,5.126,8.222q.207-.147.426-.281A45.117,45.117,0,0,0,286.436,39.85a22.028,22.028,0,0,0,1.934-4.45,7.5,7.5,0,0,1,7.251-5.581Zm-166.5,3.12h9.06a7.5,7.5,0,0,1,7.481,8.034c-.109,1.53-.221,3.279-.221,5.466V58.32c0,13.364-2.493,21.334-8.892,28.425-6.139,6.7-15.248,9.935-17.894,10.769a7.5,7.5,0,0,1-7.7-2l-6.24-6.6a7.5,7.5,0,0,1,.064-10.373H101.64a7.5,7.5,0,0,1-7.49-7.894l.106-1.519c.078-1.014.184-2.3.184-3.367V45.54a33.482,33.482,0,0,0-.177-3.65,7.5,7.5,0,0,1,7.437-8.47h8.64a7.5,7.5,0,0,1,7.472,8.15c-.1,1.186-.152,2.32-.152,3.97V65.82c0,1.313.047,3.362.152,4.57a7.5,7.5,0,0,1-.09,1.976,13.445,13.445,0,0,0,1.327-1.254c2.035-2.212,2.931-4.14,2.931-13.273V46.44A35.045,35.045,0,0,0,121.7,41.5a7.5,7.5,0,0,1,7.425-8.561ZM-99.423,34.619a7.5,7.5,0,0,1,6.075,3.1,94.3,94.3,0,0,1,6.426,10.349,7.5,7.5,0,0,1,.81,3.833,7.5,7.5,0,0,1,2.255-.154c2.021.168,6.118.334,9.037.334H-42.6c2.256,0,4.385-.175,5.828-.289a8.176,8.176,0,0,1,5.982,1.943,7.76,7.76,0,0,1,2.71,5.486v9.42a7.5,7.5,0,0,1-2.308,5.413,7.5,7.5,0,0,1-5.5,2.081l-1.733-.094c-1.434-.084-3.33-.2-4.975-.2H-74.82c-3.205,0-6.973.107-9.054.275a7.5,7.5,0,0,1-2.215-.15,7.5,7.5,0,0,1-1.065,8.769l-6.6,7.08A7.5,7.5,0,0,1-99.507,94.2a7.5,7.5,0,0,1-5.569-2.784c-3.977-4.927-9.022-11.041-12.524-15.137-2.117-2.518-4.913-5.646-7.227-8.168-1.012,1.372-2.079,2.834-3.083,4.211l-2.862,3.907c-1.056,1.47-2.215,3.149-3.18,4.546l-.58.839a7.5,7.5,0,0,1-5.554,3.206,7.5,7.5,0,0,1-6-2.259l-7.2-7.44a7.5,7.5,0,0,1-2.1-5.692,7.5,7.5,0,0,1,2.8-5.38,51.209,51.209,0,0,0,3.831-3.493c2.269-2.291,4.98-5.595,7.8-9.008l3.816-4.591c3.437-4.078,7.373-6.143,11.573-6.143a14.022,14.022,0,0,1,7.082,2.021,7.5,7.5,0,0,1,2.936-2.179l5.22-2.16a7.5,7.5,0,0,1,1.987-.519q.321-.186.663-.342l5.16-2.34A7.481,7.481,0,0,1-99.423,34.619Zm7.478,34.742q-.035-.358-.035-.721V59.22c0-.065,0-.13,0-.2l-3.582,1.729a7.487,7.487,0,0,1-2.4.7,7.5,7.5,0,0,1-.874.449l-.042.018ZM198.72,38.76a7.5,7.5,0,0,1,7.5,7.5v8.7a7.5,7.5,0,0,1-7.758,7.5l-2.045-.089c-1.412-.067-3.038-.147-4.357-.147H167.28c-2.138,0-4.726.115-6.64.227a7.5,7.5,0,0,1-7.94-7.487v-8.7a7.5,7.5,0,0,1,8.328-7.454c1.905.212,4.392.314,6.192.314h24.84c2.112,0,4.383-.159,5.861-.317A7.509,7.509,0,0,1,198.72,38.76ZM203.7,68.1a7.5,7.5,0,0,1,7.5,7.5v9.18a7.5,7.5,0,0,1-8.352,7.451,56.744,56.744,0,0,0-5.748-.311H162.66c-2.151,0-4.853.17-6.894.335a7.5,7.5,0,0,1-8.106-7.475V75.6a7.5,7.5,0,0,1,8.075-7.478c2.161.166,4.764.338,6.925.338H197.1a52.746,52.746,0,0,0,5.724-.309A7.506,7.506,0,0,1,203.7,68.1Z" transform="translate(309.2 -510)" fill="#fff"/>
    <path id="パス_46" data-name="パス 46" d="M-153.78-21.06h-5.46v-3.78h5.46ZM-166.56-39.6h19.74a61.548,61.548,0,0,0,4.5,15.42,34.5,34.5,0,0,1-5.64,4.62V-29.4h-16.98v12.96h11.88l-4.08,3.42c3.3,1.98,7.2,5.04,8.94,7.32l4.92-4.2a34.24,34.24,0,0,0-8.52-6.54h3.84v-1.08a28.276,28.276,0,0,1,3.54,3.78,40.438,40.438,0,0,0,5.64-4.62c2.58,3.24,5.64,5.16,9.06,5.16,4.74,0,6.84-1.98,7.86-10.5a17.068,17.068,0,0,1-5.4-3.12c-.3,5.16-.78,7.14-2.1,7.2-1.68,0-3.36-1.38-4.98-3.78a49.088,49.088,0,0,0,6.96-13.14l-6.6-1.56a36.6,36.6,0,0,1-3.66,7.92,63.206,63.206,0,0,1-2.46-9.42h16.32v-5.64h-5.52l1.8-2.16a28.314,28.314,0,0,0-8.34-3.96l-3.54,3.9a43.623,43.623,0,0,1,4.86,2.22h-6.42c-.18-1.8-.3-3.72-.36-5.58h-6.66q.09,2.79.36,5.58h-25.5v9c0,6.06-.54,14.46-5.46,20.4a23.519,23.519,0,0,1,5.16,4.32c5.7-6.78,6.84-17.22,6.84-24.6Zm19.02,2.76h-17.64v4.56h17.64Zm-24.6,40.8c4.08-3.18,6.42-8.16,7.8-13.14l-6.36-2.28A21.967,21.967,0,0,1-178.02,0Zm19.8-5.88c-2.76,0-3.24-.18-3.24-1.8V-11.4h-7.08v7.74c0,6.18,1.8,8.1,9.54,8.1h9.6c5.82,0,7.8-1.8,8.58-9.18-1.86-.42-4.92-1.44-6.24-2.52-.3,4.74-.72,5.34-3,5.34Zm14.82-7.44c3.9,3.78,7.8,9.06,9.12,12.72l6.48-3.24c-1.56-3.9-5.7-8.94-9.6-12.48ZM-100.2-46.8a70.2,70.2,0,0,0-10.62-3.72l-2.64,4.62a68.844,68.844,0,0,1,10.56,4.26Zm-11.22,27.66c3.36-3.36,7.08-7.14,10.44-10.92l-4.26-4.26a121.58,121.58,0,0,1-11.4,10.56Zm6.78-19.32a68.029,68.029,0,0,0-10.44-3.78l-2.88,4.68a58.962,58.962,0,0,1,10.32,4.26Zm41.28,26.94v-6.24H-86.4v-5.52h-6.78c4.62-3.54,7.44-8.34,8.88-14.88h5.4v8.22c0,4.02.48,5.34,1.62,6.48a7.021,7.021,0,0,0,4.5,1.5h3.72a9.233,9.233,0,0,0,3.66-.66A4.742,4.742,0,0,0-63-25.26c.54-1.2.78-4.14.96-6.66a20.976,20.976,0,0,1-6.06-3.3c-.06,2.64-.12,4.74-.18,5.64a2.732,2.732,0,0,1-.6,1.5,2.192,2.192,0,0,1-.9.18h-1.2a1.141,1.141,0,0,1-.78-.3c-.18-.24-.18-.78-.18-1.8V-44.46H-83.22c.18-2.04.36-4.14.42-6.42l-7.2.12c0,2.28-.06,4.32-.24,6.3h-8.88v6.3h7.74c-1.74,6.06-5.28,10.14-11.82,12.66a27.732,27.732,0,0,1,4.98,5.34,34.077,34.077,0,0,0,4.56-2.76v5.16h-22.92v6.24h17.82A50.553,50.553,0,0,1-118.14-1.2a32.285,32.285,0,0,1,4.68,5.76A52.532,52.532,0,0,0-93.66-8.28V5.16h7.26V-8.28A52.617,52.617,0,0,0-66.54,4.2a32.076,32.076,0,0,1,4.74-6A51.373,51.373,0,0,1-81-11.52ZM-41.82-37.8H-2.04v-6.42h-21.3v-6.54H-30.9v6.54H-48.66v14.4a47.234,47.234,0,0,0-4.02-9.48l-5.16,2.52a52.82,52.82,0,0,1,4.08,11.4l5.1-2.7v1.68c0,1.8,0,3.66-.12,5.58-3.6,1.8-7.08,3.42-9.54,4.5l2.04,6.72c2.1-1.2,4.32-2.52,6.54-3.9-1.02,5.04-3,10.02-6.9,13.98a25.638,25.638,0,0,1,5.16,4.74C-43.2-3-41.82-16.74-41.82-26.34Zm24.3,35.4V-13.08H-4.68v-6H-17.52v-8.16H-3.84v-6H-38.88v6h14.52V-2.4h-6.12V-21.12h-6.48V-2.4h-6.18V3.78H-1.92V-2.4Zm48-13.86V-21.9h5.94v3.6c0,.66,0,1.38-.06,2.04ZM49.2-21.9v5.64H42.78c.06-.6.06-1.26.06-1.86V-21.9ZM32.64-37.08a38.338,38.338,0,0,0,6.96-7.56,40.616,40.616,0,0,0,7.26,7.56ZM55.62-10.8V-27.36H42.84V-31.2h7.92v-2.94a48.379,48.379,0,0,0,4.74,2.76,40.466,40.466,0,0,1,3.66-6.24C52.92-39.96,46.8-45,42.66-50.76H36.18A37.182,37.182,0,0,1,22.26-38.1v-.42H16.8v-12.3H10.2v12.3H2.88v6.6h6.9C8.22-24.78,4.98-16.5,1.5-11.76A35.238,35.238,0,0,1,4.74-5.4,48,48,0,0,0,10.2-16.92V5.16h6.6v-25.5c1.26,2.52,2.46,5.1,3.12,6.84l3.6-5.52c-.9-1.5-5.1-7.92-6.72-10.02v-2.88h5.46V-34.8A26.813,26.813,0,0,1,24-31.32a38.028,38.028,0,0,0,4.92-2.94v3.06h7.5v3.84H24.3V-10.8H35.28C33.6-6.54,29.58-2.64,20.4.24a27.329,27.329,0,0,1,3.78,5.28C33,2.7,37.8-1.56,40.32-6.36,43.98.12,48.72,3.18,54.66,5.46A16.965,16.965,0,0,1,58.74-.48C52.98-2.28,48.48-4.56,45-10.8ZM73.26-25.2A50.18,50.18,0,0,0,86.28-36.48v9.66H93.3v-9.42A49.855,49.855,0,0,0,106.68-25.2ZM79.8-2.1V-4.62H99.96V-2.1Zm0-9.96H99.96v2.52H79.8Zm20.16-4.92H79.8v-2.4H99.96Zm16.8-21v-6.18H93.3v-6.66H86.28v6.66H63.3v6.18H79.44a46.816,46.816,0,0,1-17.82,10.8,29.866,29.866,0,0,1,4.44,5.52,50.447,50.447,0,0,0,6.78-3.3V-2.1h-9.9V4.14h54.24V-2.1h-9.84V-24.84a42.808,42.808,0,0,0,6.3,2.94,27.05,27.05,0,0,1,4.62-5.7A48.746,48.746,0,0,1,99.84-37.98Zm58.86,16.86c0-13.08-9.36-23.4-24.24-23.4-15.54,0-27.54,11.82-27.54,25.68,0,10.14,5.52,17.46,12.18,17.46,6.54,0,11.7-7.44,15.3-19.56a121.342,121.342,0,0,0,3.6-16.26c8.1,1.38,12.6,7.56,12.6,15.84,0,8.76-6,14.28-13.68,16.08a46.147,46.147,0,0,1-5.58.96l4.5,7.14C167.88.48,175.62-8.46,175.62-21.12Zm-44.1,1.5c0-6.6,5.34-15.36,15.24-17.4a90.059,90.059,0,0,1-3.18,14.52c-2.46,8.1-4.8,11.88-7.32,11.88C133.92-10.62,131.52-13.56,131.52-19.62Z" transform="translate(309.791 -510)" fill="#26abeb"/>
    <path id="パス_47" data-name="パス 47" d="M-281.76,43.02a3.482,3.482,0,0,1,3.48-3.48,3.47,3.47,0,0,1,3.42,3.48,3.458,3.458,0,0,1-3.42,3.42A3.47,3.47,0,0,1-281.76,43.02Zm-3.72,0a6.646,6.646,0,0,0,.12,1.14,25.888,25.888,0,0,1-3.42.24h-27.78a66.807,66.807,0,0,1-7.14-.48v8.46c1.5-.12,4.38-.24,7.14-.24h27.9a37.7,37.7,0,0,1-7.02,16.92c-4.86,6.12-11.64,11.34-23.52,14.1l6.54,7.2c10.68-3.48,18.72-9.42,24.12-16.62,5.04-6.66,7.62-15.96,9-21.84.18-.54.3-1.14.48-1.8a3.421,3.421,0,0,0,.78.06,7.2,7.2,0,0,0,7.14-7.14,7.209,7.209,0,0,0-7.14-7.2A7.221,7.221,0,0,0-285.48,43.02Zm28.86-2.04v7.74c1.74-.12,4.32-.18,6.24-.18h22.98c2.16,0,4.98.06,6.6.18V40.98a56.569,56.569,0,0,1-6.48.3h-23.1A50.577,50.577,0,0,1-256.62,40.98Zm40.86,17.4-5.34-3.3a12.657,12.657,0,0,1-4.38.6h-29.7c-1.86,0-4.44-.18-6.96-.36v7.8c2.52-.24,5.52-.3,6.96-.3h28.98a26.03,26.03,0,0,1-6.18,10.38c-4.56,4.68-11.76,8.64-20.76,10.5l5.94,6.78a44.929,44.929,0,0,0,21.42-12.96c4.5-4.98,7.08-10.8,8.88-16.62A22.228,22.228,0,0,1-215.76,58.38Zm9.48,5.28,3.78,7.56a120.225,120.225,0,0,0,21.18-8.64v19.2a67.193,67.193,0,0,1-.42,7.86h9.48a41.25,41.25,0,0,1-.54-7.86V57.54a110.054,110.054,0,0,0,16.14-13.02l-6.48-6.18a76.921,76.921,0,0,1-16.92,14.58A96.481,96.481,0,0,1-206.28,63.66Zm98.82-18.24-5.22,2.16a54.413,54.413,0,0,1,5.46,9.78l5.4-2.34A89.46,89.46,0,0,0-107.46,45.42Zm8.04-3.3-5.16,2.34A62.774,62.774,0,0,1-98.82,54l5.22-2.52A87.331,87.331,0,0,0-99.42,42.12ZM-147.9,69.9l7.2,7.44c1.08-1.56,2.52-3.66,3.9-5.58,2.4-3.24,6.66-9.18,9-12.18,1.74-2.16,3-2.28,4.92-.36,2.16,2.22,7.5,8.04,10.98,12.18,3.54,4.14,8.64,10.32,12.66,15.3l6.6-7.08c-4.62-4.92-10.74-11.58-14.76-15.84-3.6-3.9-8.22-8.7-12.24-12.48-4.68-4.38-8.22-3.72-11.76.48-4.14,4.92-8.82,10.8-11.52,13.56C-144.78,67.14-146.1,68.46-147.9,69.9Zm63.42-10.68v9.42c2.22-.18,6.24-.3,9.66-.3H-42.6c2.52,0,5.58.24,7.02.3V59.22c-1.56.12-4.2.36-7.02.36H-74.82C-77.94,59.58-82.32,59.4-84.48,59.22Zm73.32,22.02a65.9,65.9,0,0,1-.6,8.4H-2.4c-.24-2.46-.54-6.66-.54-8.4V64.26A173.3,173.3,0,0,1,18.72,73.2l3.42-8.28a195.963,195.963,0,0,0-25.08-9.3V46.74a65.235,65.235,0,0,1,.54-7.2h-9.36a41.65,41.65,0,0,1,.6,7.2ZM64.38,40.2l-8.76-2.88a28.866,28.866,0,0,1-2.7,6.3A52.831,52.831,0,0,1,34.2,62.94l6.72,4.98A68.39,68.39,0,0,0,56.04,53.4H72.9c-.96,4.5-4.44,11.7-8.52,16.38C59.16,75.72,52.5,80.94,40.2,84.6l7.08,6.36C58.56,86.52,65.82,81,71.52,74.04A62.6,62.6,0,0,0,81.96,54a24.022,24.022,0,0,1,1.98-4.32L77.82,45.9a19.239,19.239,0,0,1-5.22.72H60.54c.06-.12.12-.18.18-.3C61.44,45,63,42.3,64.38,40.2Zm73.8.24h-9.06a42.326,42.326,0,0,1,.36,6v11.4c0,9.36-.78,13.86-4.92,18.36-3.6,3.9-8.46,6.18-14.4,7.56l6.24,6.6c4.38-1.38,10.62-4.32,14.58-8.64,4.44-4.92,6.96-10.5,6.96-23.4V46.44C137.94,44.04,138.06,42.12,138.18,40.44Zm-27.84.48H101.7a42.6,42.6,0,0,1,.24,4.62V65.76c0,1.8-.24,4.14-.3,5.28h8.7c-.12-1.38-.18-3.72-.18-5.22V45.54C110.16,43.62,110.22,42.3,110.34,40.92Zm49.86,5.34v8.7c2.04-.12,4.8-.24,7.08-.24h24.78c2.1,0,4.92.18,6.66.24v-8.7c-1.68.18-4.26.36-6.66.36H167.22C165.18,46.62,162.36,46.5,160.2,46.26ZM155.16,75.6v9.18c2.22-.18,5.16-.36,7.5-.36H197.1a65.177,65.177,0,0,1,6.6.36V75.6a60.815,60.815,0,0,1-6.6.36H162.66C160.32,75.96,157.5,75.78,155.16,75.6ZM240.3,51.36l-7.14,2.34a99.937,99.937,0,0,1,4.86,13.32l7.2-2.52C244.38,61.74,241.44,53.94,240.3,51.36Zm22.14,4.38-8.4-2.7c-.72,7.5-3.6,15.48-7.68,20.58-4.98,6.24-13.32,10.8-19.92,12.54l6.3,6.42a46.855,46.855,0,0,0,20.1-14.88A48.379,48.379,0,0,0,261,60.12C261.36,58.92,261.72,57.66,262.44,55.74Zm-36.06-1.2-7.2,2.58a121.191,121.191,0,0,1,5.46,13.86l7.32-2.76C230.76,64.86,227.88,57.6,226.38,54.54Zm78-14.34-8.76-2.88a28.867,28.867,0,0,1-2.7,6.3A52.831,52.831,0,0,1,274.2,62.94l6.72,4.98A68.391,68.391,0,0,0,296.04,53.4H312.9c-.96,4.5-4.44,11.7-8.52,16.38-5.22,5.94-11.88,11.16-24.18,14.82l7.08,6.36c11.28-4.44,18.54-9.96,24.24-16.92A62.6,62.6,0,0,0,321.96,54a24.023,24.023,0,0,1,1.98-4.32l-6.12-3.78a19.24,19.24,0,0,1-5.22.72H300.54c.06-.12.12-.18.18-.3C301.44,45,303,42.3,304.38,40.2Z" transform="translate(309.201 -509)" fill="#ee84b2"/>
  </g>
</svg>
